<?xml version="1.0" encoding="UTF-8"?>
<!--Generator: Apple Native CoreSVG 123-->
<!DOCTYPE svg
PUBLIC "-//W3C//DTD SVG 1.1//EN"
       "http://www.w3.org/Graphics/SVG/1.1/DTD/svg11.dtd">
<svg version="1.1" xmlns="http://www.w3.org/2000/svg" xmlns:xlink="http://www.w3.org/1999/xlink" width="3300" height="2200">
 <!--glyph: "uni1002F7.medium", point size: 100.000000, font version: "Version 15.0d4e20", template writer version: "2"-->
 <g id="Notes">
  <rect height="2200" id="artboard" style="fill:white;opacity:1" width="3300" x="0" y="0"/>
  <line id="" style="fill:none;stroke:black;opacity:1;stroke-width:0.5;" x1="263" x2="3036" y1="292" y2="292"/>
  <text style="stroke:none;fill:black;font-family:-apple-system,&quot;SF Pro Display&quot;,&quot;SF Pro Text&quot;,Helvetica,sans-serif;font-weight:bold;" transform="matrix(1 0 0 1 263 322)">Weight/Scale Variations</text>
  <text style="stroke:none;fill:black;font-family:-apple-system,&quot;SF Pro Display&quot;,&quot;SF Pro Text&quot;,Helvetica,sans-serif;text-anchor:middle;" transform="matrix(1 0 0 1 559.711 322)">Ultralight</text>
  <text style="stroke:none;fill:black;font-family:-apple-system,&quot;SF Pro Display&quot;,&quot;SF Pro Text&quot;,Helvetica,sans-serif;text-anchor:middle;" transform="matrix(1 0 0 1 856.422 322)">Thin</text>
  <text style="stroke:none;fill:black;font-family:-apple-system,&quot;SF Pro Display&quot;,&quot;SF Pro Text&quot;,Helvetica,sans-serif;text-anchor:middle;" transform="matrix(1 0 0 1 1153.13 322)">Light</text>
  <text style="stroke:none;fill:black;font-family:-apple-system,&quot;SF Pro Display&quot;,&quot;SF Pro Text&quot;,Helvetica,sans-serif;text-anchor:middle;" transform="matrix(1 0 0 1 1449.84 322)">Regular</text>
  <text style="stroke:none;fill:black;font-family:-apple-system,&quot;SF Pro Display&quot;,&quot;SF Pro Text&quot;,Helvetica,sans-serif;text-anchor:middle;" transform="matrix(1 0 0 1 1746.56 322)">Medium</text>
  <text style="stroke:none;fill:black;font-family:-apple-system,&quot;SF Pro Display&quot;,&quot;SF Pro Text&quot;,Helvetica,sans-serif;text-anchor:middle;" transform="matrix(1 0 0 1 2043.27 322)">Semibold</text>
  <text style="stroke:none;fill:black;font-family:-apple-system,&quot;SF Pro Display&quot;,&quot;SF Pro Text&quot;,Helvetica,sans-serif;text-anchor:middle;" transform="matrix(1 0 0 1 2339.98 322)">Bold</text>
  <text style="stroke:none;fill:black;font-family:-apple-system,&quot;SF Pro Display&quot;,&quot;SF Pro Text&quot;,Helvetica,sans-serif;text-anchor:middle;" transform="matrix(1 0 0 1 2636.69 322)">Heavy</text>
  <text style="stroke:none;fill:black;font-family:-apple-system,&quot;SF Pro Display&quot;,&quot;SF Pro Text&quot;,Helvetica,sans-serif;text-anchor:middle;" transform="matrix(1 0 0 1 2933.4 322)">Black</text>
  <line id="" style="fill:none;stroke:black;opacity:1;stroke-width:0.5;" x1="263" x2="3036" y1="1903" y2="1903"/>
  <g id="" transform="matrix(1 0 0 1 263 1933)">
   <path d="M 9.24805 0.830078 C 13.5547 0.830078 17.1387 -2.74414 17.1387 -7.05078 C 17.1387 -11.3574 13.5449 -14.9316 9.23828 -14.9316 C 4.94141 -14.9316 1.36719 -11.3574 1.36719 -7.05078 C 1.36719 -2.74414 4.95117 0.830078 9.24805 0.830078 Z M 9.24805 -0.654297 C 5.70312 -0.654297 2.87109 -3.49609 2.87109 -7.05078 C 2.87109 -10.6055 5.69336 -13.4473 9.23828 -13.4473 C 12.793 -13.4473 15.6348 -10.6055 15.6445 -7.05078 C 15.6543 -3.49609 12.8027 -0.654297 9.24805 -0.654297 Z M 9.22852 -3.42773 C 9.69727 -3.42773 9.9707 -3.74023 9.9707 -4.25781 L 9.9707 -6.31836 L 12.1973 -6.31836 C 12.6953 -6.31836 13.0371 -6.57227 13.0371 -7.04102 C 13.0371 -7.51953 12.7148 -7.7832 12.1973 -7.7832 L 9.9707 -7.7832 L 9.9707 -10.0098 C 9.9707 -10.5273 9.69727 -10.8496 9.22852 -10.8496 C 8.75977 -10.8496 8.50586 -10.5078 8.50586 -10.0098 L 8.50586 -7.7832 L 6.29883 -7.7832 C 5.78125 -7.7832 5.44922 -7.51953 5.44922 -7.04102 C 5.44922 -6.57227 5.80078 -6.31836 6.29883 -6.31836 L 8.50586 -6.31836 L 8.50586 -4.25781 C 8.50586 -3.75977 8.75977 -3.42773 9.22852 -3.42773 Z"/>
  </g>
  <g id="" transform="matrix(1 0 0 1 281.506 1933)">
   <path d="M 11.709 2.91016 C 17.1484 2.91016 21.6699 -1.60156 21.6699 -7.05078 C 21.6699 -12.4902 17.1387 -17.0117 11.6992 -17.0117 C 6.25 -17.0117 1.74805 -12.4902 1.74805 -7.05078 C 1.74805 -1.60156 6.25977 2.91016 11.709 2.91016 Z M 11.709 1.25 C 7.09961 1.25 3.41797 -2.44141 3.41797 -7.05078 C 3.41797 -11.6504 7.08984 -15.3516 11.6992 -15.3516 C 16.2988 -15.3516 20 -11.6504 20.0098 -7.05078 C 20.0195 -2.44141 16.3086 1.25 11.709 1.25 Z M 11.6797 -2.41211 C 12.207 -2.41211 12.5195 -2.77344 12.5195 -3.33984 L 12.5195 -6.23047 L 15.5762 -6.23047 C 16.123 -6.23047 16.5039 -6.51367 16.5039 -7.03125 C 16.5039 -7.55859 16.1426 -7.86133 15.5762 -7.86133 L 12.5195 -7.86133 L 12.5195 -10.9277 C 12.5195 -11.5039 12.207 -11.8555 11.6797 -11.8555 C 11.1621 -11.8555 10.8789 -11.4844 10.8789 -10.9277 L 10.8789 -7.86133 L 7.83203 -7.86133 C 7.25586 -7.86133 6.89453 -7.55859 6.89453 -7.03125 C 6.89453 -6.51367 7.28516 -6.23047 7.83203 -6.23047 L 10.8789 -6.23047 L 10.8789 -3.33984 C 10.8789 -2.79297 11.1621 -2.41211 11.6797 -2.41211 Z"/>
  </g>
  <g id="" transform="matrix(1 0 0 1 304.914 1933)">
   <path d="M 14.9707 5.67383 C 21.9336 5.67383 27.6855 -0.078125 27.6855 -7.04102 C 27.6855 -14.0039 21.9238 -19.7559 14.9609 -19.7559 C 7.99805 -19.7559 2.25586 -14.0039 2.25586 -7.04102 C 2.25586 -0.078125 8.00781 5.67383 14.9707 5.67383 Z M 14.9707 3.85742 C 8.92578 3.85742 4.08203 -1.00586 4.08203 -7.04102 C 4.08203 -13.0762 8.91602 -17.9395 14.9609 -17.9395 C 20.9961 -17.9395 25.8594 -13.0762 25.8691 -7.04102 C 25.8789 -1.00586 21.0059 3.85742 14.9707 3.85742 Z M 14.9414 -1.06445 C 15.5176 -1.06445 15.8594 -1.45508 15.8594 -2.06055 L 15.8594 -6.13281 L 20.0977 -6.13281 C 20.6934 -6.13281 21.1133 -6.46484 21.1133 -7.02148 C 21.1133 -7.59766 20.7227 -7.93945 20.0977 -7.93945 L 15.8594 -7.93945 L 15.8594 -12.1875 C 15.8594 -12.8027 15.5176 -13.1934 14.9414 -13.1934 C 14.3848 -13.1934 14.0625 -12.7832 14.0625 -12.1875 L 14.0625 -7.93945 L 9.82422 -7.93945 C 9.20898 -7.93945 8.80859 -7.59766 8.80859 -7.02148 C 8.80859 -6.46484 9.23828 -6.13281 9.82422 -6.13281 L 14.0625 -6.13281 L 14.0625 -2.06055 C 14.0625 -1.47461 14.3848 -1.06445 14.9414 -1.06445 Z"/>
  </g>
  <text style="stroke:none;fill:black;font-family:-apple-system,&quot;SF Pro Display&quot;,&quot;SF Pro Text&quot;,Helvetica,sans-serif;font-weight:bold;" transform="matrix(1 0 0 1 263 1953)">Design Variations</text>
  <text style="stroke:none;fill:black;font-family:-apple-system,&quot;SF Pro Display&quot;,&quot;SF Pro Text&quot;,Helvetica,sans-serif;" transform="matrix(1 0 0 1 263 1971)">Symbols are supported in up to nine weights and three scales.</text>
  <text style="stroke:none;fill:black;font-family:-apple-system,&quot;SF Pro Display&quot;,&quot;SF Pro Text&quot;,Helvetica,sans-serif;" transform="matrix(1 0 0 1 263 1989)">For optimal layout with text and other symbols, vertically align</text>
  <text style="stroke:none;fill:black;font-family:-apple-system,&quot;SF Pro Display&quot;,&quot;SF Pro Text&quot;,Helvetica,sans-serif;" transform="matrix(1 0 0 1 263 2007)">symbols with the adjacent text.</text>
  <rect height="14" id="" style="fill:#00AEEF;stroke:none;opacity:0.4;" width="3" x="776" y="1919"/>
  <g id="" transform="matrix(1 0 0 1 779 1933)">
   <path d="M 10.5273 0 L 12.373 0 L 7.17773 -14.0918 L 5.43945 -14.0918 L 0.244141 0 L 2.08984 0 L 3.50586 -4.0332 L 9.11133 -4.0332 Z M 6.2793 -11.9531 L 6.33789 -11.9531 L 8.59375 -5.52734 L 4.02344 -5.52734 Z"/>
  </g>
  <rect height="14" id="" style="fill:#00AEEF;stroke:none;opacity:0.4;" width="3" x="791.617" y="1919"/>
  <text style="stroke:none;fill:black;font-family:-apple-system,&quot;SF Pro Display&quot;,&quot;SF Pro Text&quot;,Helvetica,sans-serif;font-weight:bold;" transform="matrix(1 0 0 1 776 1953)">Side Bearings</text>
  <text style="stroke:none;fill:black;font-family:-apple-system,&quot;SF Pro Display&quot;,&quot;SF Pro Text&quot;,Helvetica,sans-serif;" transform="matrix(1 0 0 1 776 1971)">Horizontal padding on the left and right side of each symbol</text>
  <text style="stroke:none;fill:black;font-family:-apple-system,&quot;SF Pro Display&quot;,&quot;SF Pro Text&quot;,Helvetica,sans-serif;" transform="matrix(1 0 0 1 776 1989)">can be adjusted by modifying the width of the blue rectangles.</text>
  <text style="stroke:none;fill:black;font-family:-apple-system,&quot;SF Pro Display&quot;,&quot;SF Pro Text&quot;,Helvetica,sans-serif;" transform="matrix(1 0 0 1 776 2007)">Modifications are automatically applied proportionally to all</text>
  <text style="stroke:none;fill:black;font-family:-apple-system,&quot;SF Pro Display&quot;,&quot;SF Pro Text&quot;,Helvetica,sans-serif;" transform="matrix(1 0 0 1 776 2025)">scales and weights.</text>
  <g id="" transform="matrix(1 0 0 1 1289 1933)">
   <path d="M 2.96875 2.35352 L 3.80859 3.19336 C 4.84375 4.22852 6.12305 4.15039 7.19727 2.97852 L 16.1621 -6.82617 C 16.5527 -6.74805 16.9629 -6.8457 17.4902 -7.02148 C 18.1738 -7.25586 18.2715 -7.25586 18.3887 -7.13867 C 18.5352 -7.01172 18.4863 -6.89453 18.2422 -6.25 C 17.8809 -5.33203 17.8125 -4.79492 18.5547 -4.02344 L 19.4238 -3.13477 C 20.2734 -2.24609 21.3281 -2.26562 22.2168 -3.14453 L 25.0586 -5.97656 C 25.9473 -6.86523 25.957 -7.92969 25.0781 -8.7793 L 24.1797 -9.64844 C 23.4082 -10.4004 22.8711 -10.3516 21.9629 -9.98047 C 21.3184 -9.72656 21.2012 -9.6875 21.0645 -9.81445 C 20.9375 -9.93164 20.9473 -10.0391 21.1816 -10.7129 C 21.5332 -11.6895 21.5723 -12.2852 20.752 -13.0957 L 19.3359 -14.5117 C 15.1953 -18.6133 11.2305 -18.7402 7.65625 -15.4395 C 7.08008 -14.9023 6.99219 -14.1504 7.53906 -13.6133 L 7.79297 -13.3594 C 8.22266 -12.9297 8.86719 -12.8418 9.41406 -13.1152 C 11.0645 -13.9453 12.2559 -14.0234 13.457 -12.9785 L 13.0273 -11.416 C 12.8516 -10.8008 12.793 -10.3418 12.9199 -9.93164 L 3.18359 -1.04492 C 2.02148 0.0292969 1.93359 1.32812 2.96875 2.35352 Z M 8.96484 -14.4922 C 8.89648 -14.5703 8.86719 -14.6582 8.99414 -14.7559 C 11.709 -17.2852 15.0391 -16.8457 18.3496 -13.5254 L 19.6973 -12.168 C 20.0879 -11.7773 20.0977 -11.582 19.8828 -10.8691 C 19.6582 -10.127 19.502 -9.53125 20.1465 -8.88672 C 20.8105 -8.22266 21.2891 -8.41797 22.207 -8.63281 C 22.9004 -8.79883 23.0664 -8.79883 23.4473 -8.41797 L 24.0918 -7.77344 C 24.4043 -7.48047 24.4141 -7.32422 24.0723 -6.97266 L 21.2207 -4.13086 C 20.8887 -3.79883 20.7227 -3.79883 20.4297 -4.10156 L 19.7852 -4.75586 C 19.4141 -5.13672 19.4141 -5.30273 19.5801 -6.01562 C 19.7852 -6.88477 19.9805 -7.38281 19.3262 -8.04688 C 18.6719 -8.7207 18.0762 -8.57422 17.3438 -8.33008 C 16.5625 -8.06641 16.3281 -8.06641 15.8984 -8.49609 L 14.6094 -9.78516 C 14.1699 -10.2246 14.1309 -10.4395 14.2676 -10.9082 L 15.0293 -13.3984 C 13.3887 -15.2832 11.4941 -15.5566 9.20898 -14.4434 C 9.11133 -14.3945 9.04297 -14.4141 8.96484 -14.4922 Z M 3.96484 1.36719 C 3.52539 0.927734 3.54492 0.537109 4.14062 -0.00976562 L 13.7402 -8.81836 L 15 -7.55859 L 6.17188 2.02148 C 5.625 2.60742 5.24414 2.64648 4.79492 2.19727 Z"/>
  </g>
  <text style="stroke:none;fill:black;font-family:-apple-system,&quot;SF Pro Display&quot;,&quot;SF Pro Text&quot;,Helvetica,sans-serif;font-weight:bold;" transform="matrix(1 0 0 1 1289 1953)">Exporting</text>
  <text style="stroke:none;fill:black;font-family:-apple-system,&quot;SF Pro Display&quot;,&quot;SF Pro Text&quot;,Helvetica,sans-serif;" transform="matrix(1 0 0 1 1289 1971)">Symbols should be outlined when exporting to ensure the</text>
  <text style="stroke:none;fill:black;font-family:-apple-system,&quot;SF Pro Display&quot;,&quot;SF Pro Text&quot;,Helvetica,sans-serif;" transform="matrix(1 0 0 1 1289 1989)">design is preserved when submitting to Xcode.</text>
  <text id="template-version" style="stroke:none;fill:black;font-family:-apple-system,&quot;SF Pro Display&quot;,&quot;SF Pro Text&quot;,Helvetica,sans-serif;text-anchor:end;" transform="matrix(1 0 0 1 3036 1933)">Template v.0.1</text>
  <text style="stroke:none;fill:black;font-family:-apple-system,&quot;SF Pro Display&quot;,&quot;SF Pro Text&quot;,Helvetica,sans-serif;text-anchor:end;" transform="matrix(1 0 0 1 3036 1951)">Generated from list.bullet.below.rectangle</text>
  <text style="stroke:none;fill:black;font-family:-apple-system,&quot;SF Pro Display&quot;,&quot;SF Pro Text&quot;,Helvetica,sans-serif;text-anchor:end;" transform="matrix(1 0 0 1 3036 1969)">Typeset at 100 points</text>
  <text style="stroke:none;fill:black;font-family:-apple-system,&quot;SF Pro Display&quot;,&quot;SF Pro Text&quot;,Helvetica,sans-serif;" transform="matrix(1 0 0 1 263 726)">Small</text>
  <text style="stroke:none;fill:black;font-family:-apple-system,&quot;SF Pro Display&quot;,&quot;SF Pro Text&quot;,Helvetica,sans-serif;" transform="matrix(1 0 0 1 263 1156)">Medium</text>
  <text style="stroke:none;fill:black;font-family:-apple-system,&quot;SF Pro Display&quot;,&quot;SF Pro Text&quot;,Helvetica,sans-serif;" transform="matrix(1 0 0 1 263 1586)">Large</text>
 </g>
 <g id="Guides">
  <g id="H-reference" style="fill:#27AAE1;stroke:none;" transform="matrix(1 0 0 1 339 696)">
   <path d="M 54.9316 0 L 57.666 0 L 30.5664 -70.459 L 28.0762 -70.459 L 0.976562 0 L 3.66211 0 L 12.9395 -24.4629 L 45.7031 -24.4629 Z M 29.1992 -67.0898 L 29.4434 -67.0898 L 44.8242 -26.709 L 13.8184 -26.709 Z"/>
  </g>
  <line id="Baseline-S" style="fill:none;stroke:#27AAE1;opacity:1;stroke-width:0.577;" x1="263" x2="3036" y1="696" y2="696"/>
  <line id="Capline-S" style="fill:none;stroke:#27AAE1;opacity:1;stroke-width:0.577;" x1="263" x2="3036" y1="625.541" y2="625.541"/>
  <g id="H-reference" style="fill:#27AAE1;stroke:none;" transform="matrix(1 0 0 1 339 1126)">
   <path d="M 54.9316 0 L 57.666 0 L 30.5664 -70.459 L 28.0762 -70.459 L 0.976562 0 L 3.66211 0 L 12.9395 -24.4629 L 45.7031 -24.4629 Z M 29.1992 -67.0898 L 29.4434 -67.0898 L 44.8242 -26.709 L 13.8184 -26.709 Z"/>
  </g>
  <line id="Baseline-M" style="fill:none;stroke:#27AAE1;opacity:1;stroke-width:0.577;" x1="263" x2="3036" y1="1126" y2="1126"/>
  <line id="Capline-M" style="fill:none;stroke:#27AAE1;opacity:1;stroke-width:0.577;" x1="263" x2="3036" y1="1055.54" y2="1055.54"/>
  <g id="H-reference" style="fill:#27AAE1;stroke:none;" transform="matrix(1 0 0 1 339 1556)">
   <path d="M 54.9316 0 L 57.666 0 L 30.5664 -70.459 L 28.0762 -70.459 L 0.976562 0 L 3.66211 0 L 12.9395 -24.4629 L 45.7031 -24.4629 Z M 29.1992 -67.0898 L 29.4434 -67.0898 L 44.8242 -26.709 L 13.8184 -26.709 Z"/>
  </g>
  <line id="Baseline-L" style="fill:none;stroke:#27AAE1;opacity:1;stroke-width:0.577;" x1="263" x2="3036" y1="1556" y2="1556"/>
  <line id="Capline-L" style="fill:none;stroke:#27AAE1;opacity:1;stroke-width:0.577;" x1="263" x2="3036" y1="1485.54" y2="1485.54"/>
  <rect height="119.336" id="left-margin" style="fill:#00AEEF;stroke:none;opacity:0.4;" width="12.4512" x="1390.64" y="1030.79"/>
  <rect height="119.336" id="right-margin" style="fill:#00AEEF;stroke:none;opacity:0.4;" width="12.5" x="1496.55" y="1030.79"/>
 </g>
 <g id="Symbols">
  <g id="Ultralight-S" transform="matrix(1 0 0 1 515.351 696)">
   <path d="M 19.3848 -68.75 C 13.2812 -68.75 9.76562 -65.2344 9.76562 -59.1309 L 9.76562 -40.6738 C 9.76562 -34.5703 13.2812 -31.0547 19.3848 -31.0547 L 69.3359 -31.0547 C 75.4395 -31.0547 78.9551 -34.5703 78.9551 -40.6738 L 78.9551 -59.1309 C 78.9551 -65.2344 75.4395 -68.75 69.3359 -68.75 Z M 11.9629 -40.6738 L 11.9629 -59.1309 C 11.9629 -64.0137 14.502 -66.6504 19.3848 -66.6504 L 69.3359 -66.6504 C 74.2188 -66.6504 76.7578 -64.0137 76.7578 -59.1309 L 76.7578 -40.6738 C 76.7578 -35.791 74.2188 -33.1543 69.3359 -33.1543 L 19.3848 -33.1543 C 14.502 -33.1543 11.9629 -35.791 11.9629 -40.6738 Z M 17.7734 -18.0664 C 17.7734 -19.9219 16.2109 -21.582 14.2578 -21.582 C 12.4023 -21.582 10.791 -19.9219 10.791 -18.0664 C 10.791 -16.1133 12.4023 -14.5508 14.2578 -14.5508 C 16.2109 -14.5508 17.7734 -16.1133 17.7734 -18.0664 Z M 78.5645 -18.0664 C 78.5645 -18.6523 78.0762 -19.1406 77.3926 -19.1406 L 24.4629 -19.1406 C 23.8281 -19.1406 23.291 -18.6523 23.291 -18.0664 C 23.291 -17.4316 23.8281 -16.9434 24.4629 -16.9434 L 77.3926 -16.9434 C 78.0762 -16.9434 78.5645 -17.4316 78.5645 -18.0664 Z M 17.7734 -3.95508 C 17.7734 -5.81055 16.2109 -7.42188 14.2578 -7.42188 C 12.4023 -7.42188 10.791 -5.81055 10.791 -3.95508 C 10.791 -2.00195 12.4023 -0.439453 14.2578 -0.439453 C 16.2109 -0.439453 17.7734 -2.00195 17.7734 -3.95508 Z M 78.5645 -3.95508 C 78.5645 -4.54102 78.0762 -5.0293 77.3926 -5.0293 L 24.4629 -5.0293 C 23.8281 -5.0293 23.291 -4.54102 23.291 -3.95508 C 23.291 -3.32031 23.8281 -2.83203 24.4629 -2.83203 L 77.3926 -2.83203 C 78.0762 -2.83203 78.5645 -3.32031 78.5645 -3.95508 Z"/>
  </g>
  <g id="Thin-S" transform="matrix(1 0 0 1 811.5 696)">
   <path d="M 19.6777 -69.0918 C 13.0859 -69.0918 9.76562 -65.625 9.76562 -59.1797 L 9.76562 -40.8691 C 9.76562 -34.4238 13.0859 -30.957 19.6777 -30.957 L 70.166 -30.957 C 76.7578 -30.957 80.0781 -34.4238 80.0781 -40.8691 L 80.0781 -59.1797 C 80.0781 -65.625 76.7578 -69.0918 70.166 -69.0918 Z M 13.0859 -40.8203 L 13.0859 -59.2285 C 13.0859 -63.6719 15.2344 -66.0156 19.6777 -66.0156 L 70.166 -66.0156 C 74.6582 -66.0156 76.8066 -63.6719 76.8066 -59.2285 L 76.8066 -40.8203 C 76.8066 -36.377 74.6582 -34.0332 70.166 -34.0332 L 19.6777 -34.0332 C 15.2344 -34.0332 13.0859 -36.377 13.0859 -40.8203 Z M 18.0664 -18.2129 C 18.0664 -20.2148 16.4062 -21.875 14.4043 -21.875 C 12.4023 -21.875 10.6934 -20.2148 10.6934 -18.2129 C 10.6934 -16.1621 12.4023 -14.5508 14.4043 -14.5508 C 16.4062 -14.5508 18.0664 -16.1621 18.0664 -18.2129 Z M 79.3945 -18.2129 C 79.3945 -19.0918 78.6621 -19.8242 77.6855 -19.8242 L 25.1465 -19.8242 C 24.1211 -19.8242 23.3887 -19.0918 23.3887 -18.2129 C 23.3887 -17.2852 24.1211 -16.6016 25.1465 -16.6016 L 77.6855 -16.6016 C 78.6621 -16.6016 79.3945 -17.2852 79.3945 -18.2129 Z M 18.0664 -3.85742 C 18.0664 -5.85938 16.4062 -7.51953 14.4043 -7.51953 C 12.4023 -7.51953 10.6934 -5.85938 10.6934 -3.85742 C 10.6934 -1.80664 12.4023 -0.146484 14.4043 -0.146484 C 16.4062 -0.146484 18.0664 -1.80664 18.0664 -3.85742 Z M 79.3945 -3.85742 C 79.3945 -4.73633 78.6621 -5.46875 77.6855 -5.46875 L 25.1465 -5.46875 C 24.1211 -5.46875 23.3887 -4.73633 23.3887 -3.85742 C 23.3887 -2.92969 24.1211 -2.24609 25.1465 -2.24609 L 77.6855 -2.24609 C 78.6621 -2.24609 79.3945 -2.92969 79.3945 -3.85742 Z"/>
  </g>
  <g id="Light-S" transform="matrix(1 0 0 1 1107.14 696)">
   <path d="M 20.166 -69.8242 C 12.6953 -69.8242 9.76562 -66.4062 9.76562 -59.2285 L 9.76562 -41.3086 C 9.76562 -34.1309 12.6953 -30.7129 20.166 -30.7129 L 71.8262 -30.7129 C 79.2969 -30.7129 82.2266 -34.1309 82.2266 -41.3086 L 82.2266 -59.2285 C 82.2266 -66.4062 79.2969 -69.8242 71.8262 -69.8242 Z M 15.1855 -41.1133 L 15.1855 -59.375 C 15.1855 -63.0371 16.5527 -64.7461 20.2148 -64.7461 L 71.7773 -64.7461 C 75.4395 -64.7461 76.8066 -63.0371 76.8066 -59.375 L 76.8066 -41.1133 C 76.8066 -37.5 75.4395 -35.791 71.7773 -35.791 L 20.2148 -35.791 C 16.5527 -35.791 15.1855 -37.5 15.1855 -41.1133 Z M 18.6035 -18.5059 C 18.6035 -20.7031 16.8457 -22.5098 14.5508 -22.5098 C 12.3535 -22.5098 10.5469 -20.7031 10.5469 -18.5059 C 10.5469 -16.2598 12.3535 -14.502 14.5508 -14.502 C 16.8457 -14.502 18.6035 -16.2598 18.6035 -18.5059 Z M 81.0547 -18.5059 C 81.0547 -19.9707 79.834 -21.0938 78.1738 -21.0938 L 26.416 -21.0938 C 24.7559 -21.0938 23.5352 -19.9707 23.5352 -18.5059 C 23.5352 -16.9922 24.7559 -15.8691 26.416 -15.8691 L 78.1738 -15.8691 C 79.834 -15.8691 81.0547 -16.9922 81.0547 -18.5059 Z M 18.6035 -3.66211 C 18.6035 -5.85938 16.8457 -7.71484 14.5508 -7.71484 C 12.3535 -7.71484 10.5469 -5.85938 10.5469 -3.66211 C 10.5469 -1.46484 12.3535 0.341797 14.5508 0.341797 C 16.8457 0.341797 18.6035 -1.46484 18.6035 -3.66211 Z M 81.0547 -3.66211 C 81.0547 -5.17578 79.834 -6.29883 78.1738 -6.29883 L 26.416 -6.29883 C 24.7559 -6.29883 23.5352 -5.17578 23.5352 -3.66211 C 23.5352 -2.19727 24.7559 -1.07422 26.416 -1.07422 L 78.1738 -1.07422 C 79.834 -1.07422 81.0547 -2.19727 81.0547 -3.66211 Z"/>
  </g>
  <g id="Regular-S" transform="matrix(1 0 0 1 1403.02 696)">
   <path d="M 20.6055 -70.3613 C 12.4023 -70.3613 9.76562 -66.9922 9.76562 -59.2773 L 9.76562 -41.6016 C 9.76562 -33.8867 12.4023 -30.5176 20.6055 -30.5176 L 73.0957 -30.5176 C 81.25 -30.5176 83.8867 -33.8867 83.8867 -41.6016 L 83.8867 -59.2773 C 83.8867 -66.9922 81.25 -70.3613 73.0957 -70.3613 Z M 16.7969 -41.3574 L 16.7969 -59.5215 C 16.7969 -62.5488 17.5781 -63.7695 20.6543 -63.7695 L 73.0469 -63.7695 C 76.0742 -63.7695 76.8555 -62.5488 76.8555 -59.5215 L 76.8555 -41.3574 C 76.8555 -38.3301 76.0742 -37.0605 73.0469 -37.0605 L 20.6543 -37.0605 C 17.5781 -37.0605 16.7969 -38.3301 16.7969 -41.3574 Z M 19.043 -18.7012 C 19.043 -21.0938 17.1387 -22.998 14.6973 -22.998 C 12.3535 -22.998 10.4492 -21.0938 10.4492 -18.7012 C 10.4492 -16.3574 12.3535 -14.502 14.6973 -14.502 C 17.1387 -14.502 19.043 -16.3574 19.043 -18.7012 Z M 82.3242 -18.7012 C 82.3242 -20.6543 80.7129 -22.0703 78.5645 -22.0703 L 27.3926 -22.0703 C 25.2441 -22.0703 23.6816 -20.6543 23.6816 -18.7012 C 23.6816 -16.7969 25.2441 -15.332 27.3926 -15.332 L 78.5645 -15.332 C 80.7129 -15.332 82.3242 -16.7969 82.3242 -18.7012 Z M 19.043 -3.51562 C 19.043 -5.9082 17.1387 -7.86133 14.6973 -7.86133 C 12.3535 -7.86133 10.4492 -5.9082 10.4492 -3.51562 C 10.4492 -1.17188 12.3535 0.732422 14.6973 0.732422 C 17.1387 0.732422 19.043 -1.17188 19.043 -3.51562 Z M 82.3242 -3.51562 C 82.3242 -5.46875 80.7129 -6.93359 78.5645 -6.93359 L 27.3926 -6.93359 C 25.2441 -6.93359 23.6816 -5.46875 23.6816 -3.51562 C 23.6816 -1.61133 25.2441 -0.146484 27.3926 -0.146484 L 78.5645 -0.146484 C 80.7129 -0.146484 82.3242 -1.61133 82.3242 -3.51562 Z"/>
  </g>
  <g id="Medium-S" transform="matrix(1 0 0 1 1699.22 696)">
   <path d="M 21.2402 -70.8496 C 12.793 -70.8496 9.76562 -67.1387 9.76562 -59.0332 L 9.76562 -42.1387 C 9.76562 -33.9844 12.793 -30.3223 21.2402 -30.3223 L 73.4375 -30.3223 C 81.9336 -30.3223 84.9121 -33.9844 84.9121 -42.1387 L 84.9121 -59.0332 C 84.9121 -67.1387 81.9336 -70.8496 73.4375 -70.8496 Z M 18.4082 -41.8945 L 18.4082 -59.2773 C 18.4082 -61.9141 19.2383 -63.0859 21.875 -63.0859 L 72.8027 -63.0859 C 75.4883 -63.0859 76.2695 -61.9141 76.2695 -59.2773 L 76.2695 -41.8945 C 76.2695 -39.209 75.4883 -38.0859 72.8027 -38.0859 L 21.875 -38.0859 C 19.2383 -38.0859 18.4082 -39.209 18.4082 -41.8945 Z M 20.0195 -18.75 C 20.0195 -21.4355 17.9199 -23.584 15.1855 -23.584 C 12.5488 -23.584 10.4004 -21.3867 10.4004 -18.75 C 10.4004 -16.1133 12.5488 -13.9648 15.1855 -13.9648 C 17.8711 -13.9648 20.0195 -16.1133 20.0195 -18.75 Z M 83.1543 -18.75 C 83.1543 -20.8984 81.3477 -22.5586 79.0039 -22.5586 L 28.4668 -22.5586 C 26.123 -22.5586 24.3652 -20.8984 24.3652 -18.75 C 24.3652 -16.5527 26.123 -14.9414 28.4668 -14.9414 L 79.0039 -14.9414 C 81.3477 -14.9414 83.1543 -16.5527 83.1543 -18.75 Z M 20.0195 -3.4668 C 20.0195 -6.15234 17.9199 -8.30078 15.1855 -8.30078 C 12.5488 -8.30078 10.4004 -6.15234 10.4004 -3.4668 C 10.4004 -0.878906 12.5488 1.31836 15.1855 1.31836 C 17.8711 1.31836 20.0195 -0.878906 20.0195 -3.4668 Z M 83.1543 -3.4668 C 83.1543 -5.66406 81.3477 -7.27539 79.0039 -7.27539 L 28.4668 -7.27539 C 26.123 -7.27539 24.3652 -5.66406 24.3652 -3.4668 C 24.3652 -1.26953 26.123 0.341797 28.4668 0.341797 L 79.0039 0.341797 C 81.3477 0.341797 83.1543 -1.26953 83.1543 -3.4668 Z"/>
  </g>
  <g id="Semibold-S" transform="matrix(1 0 0 1 1995.51 696)">
   <path d="M 21.7773 -71.1914 C 13.0859 -71.1914 9.76562 -67.2852 9.76562 -58.8379 L 9.76562 -42.5293 C 9.76562 -34.082 13.0859 -30.1758 21.7773 -30.1758 L 73.7305 -30.1758 C 82.4219 -30.1758 85.7422 -34.082 85.7422 -42.5293 L 85.7422 -58.8379 C 85.7422 -67.2852 82.4219 -71.1914 73.7305 -71.1914 Z M 19.6777 -42.2852 L 19.6777 -59.082 C 19.6777 -61.4258 20.459 -62.5488 22.8516 -62.5488 L 72.6562 -62.5488 C 75.0488 -62.5488 75.8301 -61.4258 75.8301 -59.082 L 75.8301 -42.2852 C 75.8301 -39.9414 75.0488 -38.8672 72.6562 -38.8672 L 22.8516 -38.8672 C 20.459 -38.8672 19.6777 -39.9414 19.6777 -42.2852 Z M 20.752 -18.75 C 20.752 -21.7285 18.5547 -23.9746 15.5762 -23.9746 C 12.6953 -23.9746 10.4004 -21.6309 10.4004 -18.75 C 10.4004 -15.9668 12.6953 -13.5742 15.5762 -13.5742 C 18.4082 -13.5742 20.752 -15.9668 20.752 -18.75 Z M 83.7891 -18.75 C 83.7891 -21.1426 81.8848 -22.9004 79.3457 -22.9004 L 29.2969 -22.9004 C 26.7578 -22.9004 24.8535 -21.1426 24.8535 -18.75 C 24.8535 -16.4062 26.7578 -14.6484 29.2969 -14.6484 L 79.3457 -14.6484 C 81.8848 -14.6484 83.7891 -16.4062 83.7891 -18.75 Z M 20.752 -3.41797 C 20.752 -6.34766 18.5547 -8.64258 15.5762 -8.64258 C 12.6953 -8.64258 10.4004 -6.29883 10.4004 -3.41797 C 10.4004 -0.634766 12.6953 1.80664 15.5762 1.80664 C 18.4082 1.80664 20.752 -0.634766 20.752 -3.41797 Z M 83.7891 -3.41797 C 83.7891 -5.76172 81.8848 -7.56836 79.3457 -7.56836 L 29.2969 -7.56836 C 26.7578 -7.56836 24.8535 -5.76172 24.8535 -3.41797 C 24.8535 -1.02539 26.7578 0.732422 29.2969 0.732422 L 79.3457 0.732422 C 81.8848 0.732422 83.7891 -1.02539 83.7891 -3.41797 Z"/>
  </g>
  <g id="Bold-S" transform="matrix(1 0 0 1 2291.71 696)">
   <path d="M 22.4609 -71.6797 C 13.4277 -71.6797 9.76562 -67.4316 9.76562 -58.5938 L 9.76562 -43.0664 C 9.76562 -34.2285 13.4277 -29.9805 22.4609 -29.9805 L 74.0723 -29.9805 C 83.1055 -29.9805 86.7676 -34.2285 86.7676 -43.0664 L 86.7676 -58.5938 C 86.7676 -67.4316 83.1055 -71.6797 74.0723 -71.6797 Z M 21.3379 -42.8223 L 21.3379 -58.8379 C 21.3379 -60.791 22.1191 -61.8164 24.1211 -61.8164 L 72.4609 -61.8164 C 74.4141 -61.8164 75.2441 -60.791 75.2441 -58.8379 L 75.2441 -42.8223 C 75.2441 -40.8203 74.4141 -39.8926 72.4609 -39.8926 L 24.1211 -39.8926 C 22.1191 -39.8926 21.3379 -40.8203 21.3379 -42.8223 Z M 21.7773 -18.7988 C 21.7773 -22.0703 19.3359 -24.5605 16.0645 -24.5605 C 12.9395 -24.5605 10.3516 -21.9727 10.3516 -18.7988 C 10.3516 -15.7715 12.9395 -13.0859 16.0645 -13.0859 C 19.1406 -13.0859 21.7773 -15.7715 21.7773 -18.7988 Z M 84.668 -18.7988 C 84.668 -21.4355 82.5195 -23.3887 79.834 -23.3887 L 30.3223 -23.3887 C 27.6367 -23.3887 25.5859 -21.4355 25.5859 -18.7988 C 25.5859 -16.1621 27.6367 -14.209 30.3223 -14.209 L 79.834 -14.209 C 82.5195 -14.209 84.668 -16.1621 84.668 -18.7988 Z M 21.7773 -3.32031 C 21.7773 -6.64062 19.3359 -9.08203 16.0645 -9.08203 C 12.9395 -9.08203 10.3516 -6.54297 10.3516 -3.32031 C 10.3516 -0.292969 12.9395 2.39258 16.0645 2.39258 C 19.1406 2.39258 21.7773 -0.292969 21.7773 -3.32031 Z M 84.668 -3.32031 C 84.668 -5.95703 82.5195 -7.91016 79.834 -7.91016 L 30.3223 -7.91016 C 27.6367 -7.91016 25.5859 -5.95703 25.5859 -3.32031 C 25.5859 -0.732422 27.6367 1.2207 30.3223 1.2207 L 79.834 1.2207 C 82.5195 1.2207 84.668 -0.732422 84.668 -3.32031 Z"/>
  </g>
  <g id="Heavy-S" transform="matrix(1 0 0 1 2587.64 696)">
   <path d="M 23.4375 -72.4121 C 13.9648 -72.4121 9.76562 -67.6758 9.76562 -58.2031 L 9.76562 -43.8965 C 9.76562 -34.4238 13.9648 -29.7363 23.4375 -29.7363 L 74.6094 -29.7363 C 84.082 -29.7363 88.3301 -34.4238 88.3301 -43.8965 L 88.3301 -58.2031 C 88.3301 -67.6758 84.082 -72.4121 74.6094 -72.4121 Z M 23.6816 -43.6035 L 23.6816 -58.4473 C 23.6816 -59.9121 24.5117 -60.7422 25.9277 -60.7422 L 72.1191 -60.7422 C 73.584 -60.7422 74.3652 -59.9121 74.3652 -58.4473 L 74.3652 -43.6035 C 74.3652 -42.1387 73.584 -41.3574 72.1191 -41.3574 L 25.9277 -41.3574 C 24.5117 -41.3574 23.6816 -42.1387 23.6816 -43.6035 Z M 23.2422 -18.8477 C 23.2422 -22.6074 20.5078 -25.3418 16.748 -25.3418 C 13.2324 -25.3418 10.2539 -22.4609 10.2539 -18.8477 C 10.2539 -15.4297 13.2324 -12.3047 16.748 -12.3047 C 20.166 -12.3047 23.2422 -15.4297 23.2422 -18.8477 Z M 85.8887 -18.8477 C 85.8887 -21.8262 83.4961 -24.0234 80.5176 -24.0234 L 31.8848 -24.0234 C 28.9062 -24.0234 26.5625 -21.8262 26.5625 -18.8477 C 26.5625 -15.8691 28.9062 -13.623 31.8848 -13.623 L 80.5176 -13.623 C 83.4961 -13.623 85.8887 -15.8691 85.8887 -18.8477 Z M 23.2422 -3.22266 C 23.2422 -6.98242 20.5078 -9.76562 16.748 -9.76562 C 13.2324 -9.76562 10.2539 -6.83594 10.2539 -3.22266 C 10.2539 0.146484 13.2324 3.27148 16.748 3.27148 C 20.166 3.27148 23.2422 0.146484 23.2422 -3.22266 Z M 85.8887 -3.22266 C 85.8887 -6.20117 83.4961 -8.44727 80.5176 -8.44727 L 31.8848 -8.44727 C 28.9062 -8.44727 26.5625 -6.20117 26.5625 -3.22266 C 26.5625 -0.244141 28.9062 1.95312 31.8848 1.95312 L 80.5176 1.95312 C 83.4961 1.95312 85.8887 -0.244141 85.8887 -3.22266 Z"/>
  </g>
  <g id="Black-S" transform="matrix(1 0 0 1 2883.69 696)">
   <path d="M 24.3164 -72.998 C 14.4531 -72.998 9.76562 -67.9199 9.76562 -57.9102 L 9.76562 -44.5801 C 9.76562 -34.5703 14.4531 -29.4922 24.3164 -29.4922 L 75.0977 -29.4922 C 84.9609 -29.4922 89.6484 -34.5703 89.6484 -44.5801 L 89.6484 -57.9102 C 89.6484 -67.9199 84.9609 -72.998 75.0977 -72.998 Z M 25.8301 -44.2871 L 25.8301 -58.1543 C 25.8301 -59.082 26.6113 -59.8145 27.5879 -59.8145 L 71.875 -59.8145 C 72.8027 -59.8145 73.6328 -59.082 73.6328 -58.1543 L 73.6328 -44.2871 C 73.6328 -43.3594 72.8027 -42.6758 71.875 -42.6758 L 27.5879 -42.6758 C 26.6113 -42.6758 25.8301 -43.3594 25.8301 -44.2871 Z M 24.5117 -18.8965 C 24.5117 -23.0957 21.5332 -26.0742 17.3828 -26.0742 C 13.4766 -26.0742 10.2051 -22.9004 10.2051 -18.8965 C 10.2051 -15.1855 13.4766 -11.6211 17.3828 -11.6211 C 21.1426 -11.6211 24.5117 -15.1855 24.5117 -18.8965 Z M 87.0117 -18.8965 C 87.0117 -22.168 84.375 -24.6582 81.1035 -24.6582 L 33.252 -24.6582 C 30.0293 -24.6582 27.4902 -22.168 27.4902 -18.8965 C 27.4902 -15.5762 30.0293 -13.1348 33.252 -13.1348 L 81.1035 -13.1348 C 84.375 -13.1348 87.0117 -15.5762 87.0117 -18.8965 Z M 24.5117 -3.125 C 24.5117 -7.32422 21.5332 -10.3516 17.3828 -10.3516 C 13.4766 -10.3516 10.2051 -7.17773 10.2051 -3.125 C 10.2051 0.537109 13.4766 4.10156 17.3828 4.10156 C 21.1426 4.10156 24.5117 0.537109 24.5117 -3.125 Z M 87.0117 -3.125 C 87.0117 -6.44531 84.375 -8.88672 81.1035 -8.88672 L 33.252 -8.88672 C 30.0293 -8.88672 27.4902 -6.44531 27.4902 -3.125 C 27.4902 0.146484 30.0293 2.63672 33.252 2.63672 L 81.1035 2.63672 C 84.375 2.63672 87.0117 0.146484 87.0117 -3.125 Z"/>
  </g>
  <g id="Ultralight-M" transform="matrix(1 0 0 1 503.29 1126)">
   <path d="M 24.6582 -77.8809 C 17.041 -77.8809 12.4512 -73.3887 12.4512 -65.7227 L 12.4512 -42.0898 C 12.4512 -34.4727 17.041 -29.9805 24.6582 -29.9805 L 88.1836 -29.9805 C 95.8008 -29.9805 100.342 -34.4727 100.342 -42.0898 L 100.342 -65.7227 C 100.342 -73.3887 95.8008 -77.8809 88.1836 -77.8809 Z M 14.8438 -42.0898 L 14.8438 -65.7227 C 14.8438 -72.1191 18.2617 -75.5859 24.6582 -75.5859 L 88.1836 -75.5859 C 94.5801 -75.5859 97.9492 -72.1191 97.9492 -65.7227 L 97.9492 -42.0898 C 97.9492 -35.6934 94.5801 -32.2266 88.1836 -32.2266 L 24.6582 -32.2266 C 18.2617 -32.2266 14.8438 -35.6934 14.8438 -42.0898 Z M 22.6074 -13.2324 C 22.6074 -15.625 20.6055 -17.6758 18.2129 -17.6758 C 15.8203 -17.6758 13.7695 -15.625 13.7695 -13.2324 C 13.7695 -10.8398 15.8203 -8.83789 18.2129 -8.83789 C 20.6055 -8.83789 22.6074 -10.8398 22.6074 -13.2324 Z M 99.9512 -13.2324 C 99.9512 -13.916 99.4141 -14.4531 98.6816 -14.4531 L 30.957 -14.4531 C 30.2734 -14.4531 29.7363 -13.916 29.7363 -13.2324 C 29.7363 -12.5977 30.2734 -12.0605 30.957 -12.0605 L 98.6816 -12.0605 C 99.4141 -12.0605 99.9512 -12.5977 99.9512 -13.2324 Z M 22.6074 4.6875 C 22.6074 2.34375 20.6055 0.292969 18.2129 0.292969 C 15.8203 0.292969 13.7695 2.34375 13.7695 4.6875 C 13.7695 7.08008 15.8203 9.08203 18.2129 9.08203 C 20.6055 9.08203 22.6074 7.08008 22.6074 4.6875 Z M 99.9512 4.6875 C 99.9512 4.00391 99.4141 3.4668 98.6816 3.4668 L 30.957 3.4668 C 30.2734 3.4668 29.7363 4.00391 29.7363 4.6875 C 29.7363 5.32227 30.2734 5.85938 30.957 5.85938 L 98.6816 5.85938 C 99.4141 5.85938 99.9512 5.32227 99.9512 4.6875 Z"/>
  </g>
  <g id="Thin-M" transform="matrix(1 0 0 1 799.391 1126)">
   <path d="M 24.9512 -78.2715 C 16.7969 -78.2715 12.4512 -73.8281 12.4512 -65.7715 L 12.4512 -42.334 C 12.4512 -34.2773 16.7969 -29.834 24.9512 -29.834 L 89.1113 -29.834 C 97.2656 -29.834 101.611 -34.2773 101.611 -42.334 L 101.611 -65.7715 C 101.611 -73.8281 97.2656 -78.2715 89.1113 -78.2715 Z M 16.1133 -42.2852 L 16.1133 -65.8203 C 16.1133 -71.7285 19.043 -74.8535 24.9512 -74.8535 L 89.1113 -74.8535 C 95.0195 -74.8535 97.998 -71.7285 97.998 -65.8203 L 97.998 -42.2852 C 97.998 -36.377 95.0195 -33.252 89.1113 -33.252 L 24.9512 -33.252 C 19.043 -33.252 16.1133 -36.377 16.1133 -42.2852 Z M 22.9004 -13.4277 C 22.9004 -15.918 20.8496 -18.0176 18.3105 -18.0176 C 15.8203 -18.0176 13.7207 -15.918 13.7207 -13.4277 C 13.7207 -10.8887 15.8203 -8.83789 18.3105 -8.83789 C 20.8496 -8.83789 22.9004 -10.8887 22.9004 -13.4277 Z M 100.928 -13.4277 C 100.928 -14.4043 100.098 -15.1855 98.9746 -15.1855 L 31.7383 -15.1855 C 30.6152 -15.1855 29.834 -14.4043 29.834 -13.4277 C 29.834 -12.4023 30.6152 -11.6211 31.7383 -11.6211 L 98.9746 -11.6211 C 100.098 -11.6211 100.928 -12.4023 100.928 -13.4277 Z M 22.9004 4.78516 C 22.9004 2.29492 20.8496 0.195312 18.3105 0.195312 C 15.8203 0.195312 13.7207 2.29492 13.7207 4.78516 C 13.7207 7.32422 15.8203 9.375 18.3105 9.375 C 20.8496 9.375 22.9004 7.32422 22.9004 4.78516 Z M 100.928 4.78516 C 100.928 3.80859 100.098 2.97852 98.9746 2.97852 L 31.7383 2.97852 C 30.6152 2.97852 29.834 3.80859 29.834 4.78516 C 29.834 5.76172 30.6152 6.54297 31.7383 6.54297 L 98.9746 6.54297 C 100.098 6.54297 100.928 5.76172 100.928 4.78516 Z"/>
  </g>
  <g id="Light-M" transform="matrix(1 0 0 1 1094.86 1126)">
   <path d="M 25.5371 -79.1016 C 16.3574 -79.1016 12.4512 -74.707 12.4512 -65.8203 L 12.4512 -42.7734 C 12.4512 -33.9355 16.3574 -29.541 25.5371 -29.541 L 90.9668 -29.541 C 100.195 -29.541 104.053 -33.9355 104.053 -42.7734 L 104.053 -65.8203 C 104.053 -74.707 100.195 -79.1016 90.9668 -79.1016 Z M 18.5059 -42.627 L 18.5059 -66.0156 C 18.5059 -70.9961 20.5566 -73.4375 25.5859 -73.4375 L 90.9668 -73.4375 C 95.9473 -73.4375 98.0469 -70.9961 98.0469 -66.0156 L 98.0469 -42.627 C 98.0469 -37.6465 95.9473 -35.2051 90.9668 -35.2051 L 25.5859 -35.2051 C 20.5566 -35.2051 18.5059 -37.6465 18.5059 -42.627 Z M 23.5352 -13.7207 C 23.5352 -16.4551 21.2891 -18.75 18.5059 -18.75 C 15.8203 -18.75 13.5254 -16.4551 13.5254 -13.7207 C 13.5254 -10.9863 15.8203 -8.78906 18.5059 -8.78906 C 21.2891 -8.78906 23.5352 -10.9863 23.5352 -13.7207 Z M 102.783 -13.7207 C 102.783 -15.3809 101.416 -16.6504 99.5605 -16.6504 L 33.2031 -16.6504 C 31.3477 -16.6504 29.9805 -15.3809 29.9805 -13.7207 C 29.9805 -12.1094 31.3477 -10.8398 33.2031 -10.8398 L 99.5605 -10.8398 C 101.416 -10.8398 102.783 -12.1094 102.783 -13.7207 Z M 23.5352 4.98047 C 23.5352 2.24609 21.2891 -0.0488281 18.5059 -0.0488281 C 15.8203 -0.0488281 13.5254 2.24609 13.5254 4.98047 C 13.5254 7.71484 15.8203 9.96094 18.5059 9.96094 C 21.2891 9.96094 23.5352 7.71484 23.5352 4.98047 Z M 102.783 4.98047 C 102.783 3.32031 101.416 2.05078 99.5605 2.05078 L 33.2031 2.05078 C 31.3477 2.05078 29.9805 3.32031 29.9805 4.98047 C 29.9805 6.64062 31.3477 7.91016 33.2031 7.91016 L 99.5605 7.91016 C 101.416 7.91016 102.783 6.64062 102.783 4.98047 Z"/>
  </g>
  <g id="Regular-M" transform="matrix(1 0 0 1 1390.64 1126)">
   <path d="M 25.9766 -79.6875 C 16.0156 -79.6875 12.4512 -75.3418 12.4512 -65.8691 L 12.4512 -43.1641 C 12.4512 -33.6914 16.0156 -29.3457 25.9766 -29.3457 L 92.3828 -29.3457 C 102.344 -29.3457 105.908 -33.6914 105.908 -43.1641 L 105.908 -65.8691 C 105.908 -75.3418 102.344 -79.6875 92.3828 -79.6875 Z M 20.3125 -42.9199 L 20.3125 -66.1133 C 20.3125 -70.459 21.7285 -72.3633 26.0254 -72.3633 L 92.334 -72.3633 C 96.6797 -72.3633 98.0469 -70.459 98.0469 -66.1133 L 98.0469 -42.9199 C 98.0469 -38.5742 96.6797 -36.6699 92.334 -36.6699 L 26.0254 -36.6699 C 21.7285 -36.6699 20.3125 -38.5742 20.3125 -42.9199 Z M 23.9746 -14.0137 C 23.9746 -16.8945 21.6309 -19.2871 18.7012 -19.2871 C 15.7715 -19.2871 13.4277 -16.8945 13.4277 -14.0137 C 13.4277 -11.084 15.7715 -8.78906 18.7012 -8.78906 C 21.6309 -8.78906 23.9746 -11.084 23.9746 -14.0137 Z M 104.199 -14.0137 C 104.199 -16.1621 102.393 -17.7734 100 -17.7734 L 34.3262 -17.7734 C 31.8848 -17.7734 30.127 -16.1621 30.127 -14.0137 C 30.127 -11.8652 31.8848 -10.2051 34.3262 -10.2051 L 100 -10.2051 C 102.393 -10.2051 104.199 -11.8652 104.199 -14.0137 Z M 23.9746 5.12695 C 23.9746 2.24609 21.6309 -0.195312 18.7012 -0.195312 C 15.7715 -0.195312 13.4277 2.24609 13.4277 5.12695 C 13.4277 8.05664 15.7715 10.4004 18.7012 10.4004 C 21.6309 10.4004 23.9746 8.05664 23.9746 5.12695 Z M 104.199 5.12695 C 104.199 2.97852 102.393 1.36719 100 1.36719 L 34.3262 1.36719 C 31.8848 1.36719 30.127 2.97852 30.127 5.12695 C 30.127 7.27539 31.8848 8.93555 34.3262 8.93555 L 100 8.93555 C 102.393 8.93555 104.199 7.27539 104.199 5.12695 Z"/>
  </g>
  <g id="Medium-M" transform="matrix(1 0 0 1 1686.72 1126)">
   <path d="M 26.7578 -80.2734 C 16.3574 -80.2734 12.4512 -75.5859 12.4512 -65.625 L 12.4512 -43.75 C 12.4512 -33.7891 16.3574 -29.1016 26.7578 -29.1016 L 92.9199 -29.1016 C 103.32 -29.1016 107.227 -33.7891 107.227 -43.75 L 107.227 -65.625 C 107.227 -75.5859 103.32 -80.2734 92.9199 -80.2734 Z M 22.2168 -43.457 L 22.2168 -65.918 C 22.2168 -69.7266 23.5352 -71.4844 27.3926 -71.4844 L 92.2852 -71.4844 C 96.1426 -71.4844 97.4609 -69.7266 97.4609 -65.918 L 97.4609 -43.457 C 97.4609 -39.6484 96.1426 -37.8906 92.2852 -37.8906 L 27.3926 -37.8906 C 23.5352 -37.8906 22.2168 -39.6484 22.2168 -43.457 Z M 25.0488 -14.0625 C 25.0488 -17.334 22.5098 -19.9219 19.1895 -19.9219 C 15.9668 -19.9219 13.3789 -17.2852 13.3789 -14.0625 C 13.3789 -10.8887 15.9668 -8.25195 19.1895 -8.25195 C 22.4121 -8.25195 25.0488 -10.8887 25.0488 -14.0625 Z M 105.225 -14.0625 C 105.225 -16.5039 103.174 -18.3594 100.537 -18.3594 L 35.498 -18.3594 C 32.8613 -18.3594 30.8594 -16.5039 30.8594 -14.0625 C 30.8594 -11.5723 32.8613 -9.7168 35.498 -9.7168 L 100.537 -9.7168 C 103.174 -9.7168 105.225 -11.5723 105.225 -14.0625 Z M 25.0488 5.22461 C 25.0488 1.95312 22.5098 -0.634766 19.1895 -0.634766 C 15.9668 -0.634766 13.3789 2.00195 13.3789 5.22461 C 13.3789 8.39844 15.9668 11.0352 19.1895 11.0352 C 22.4121 11.0352 25.0488 8.39844 25.0488 5.22461 Z M 105.225 5.22461 C 105.225 2.73438 103.174 0.878906 100.537 0.878906 L 35.498 0.878906 C 32.8613 0.878906 30.8594 2.73438 30.8594 5.22461 C 30.8594 7.66602 32.8613 9.52148 35.498 9.52148 L 100.537 9.52148 C 103.174 9.52148 105.225 7.66602 105.225 5.22461 Z"/>
  </g>
  <g id="Semibold-M" transform="matrix(1 0 0 1 1982.94 1126)">
   <path d="M 27.2949 -80.6641 C 16.6504 -80.6641 12.4512 -75.7812 12.4512 -65.4297 L 12.4512 -44.1895 C 12.4512 -33.8379 16.6504 -28.9551 27.2949 -28.9551 L 93.3594 -28.9551 C 104.004 -28.9551 108.203 -33.8379 108.203 -44.1895 L 108.203 -65.4297 C 108.203 -75.7812 104.004 -80.6641 93.3594 -80.6641 Z M 23.6328 -43.8965 L 23.6328 -65.7227 C 23.6328 -69.1895 24.9023 -70.8496 28.418 -70.8496 L 92.2852 -70.8496 C 95.752 -70.8496 97.0215 -69.1895 97.0215 -65.7227 L 97.0215 -43.8965 C 97.0215 -40.4297 95.752 -38.8184 92.2852 -38.8184 L 28.418 -38.8184 C 24.9023 -38.8184 23.6328 -40.4297 23.6328 -43.8965 Z M 25.8789 -14.1113 C 25.8789 -17.627 23.1445 -20.4102 19.5801 -20.4102 C 16.1621 -20.4102 13.3301 -17.5781 13.3301 -14.1113 C 13.3301 -10.6934 16.1621 -7.86133 19.5801 -7.86133 C 23.0469 -7.86133 25.8789 -10.6934 25.8789 -14.1113 Z M 106.006 -14.1113 C 106.006 -16.7969 103.809 -18.8477 100.928 -18.8477 L 36.4258 -18.8477 C 33.5449 -18.8477 31.3965 -16.7969 31.3965 -14.1113 C 31.3965 -11.377 33.5449 -9.375 36.4258 -9.375 L 100.928 -9.375 C 103.809 -9.375 106.006 -11.377 106.006 -14.1113 Z M 25.8789 5.27344 C 25.8789 1.75781 23.1445 -1.02539 19.5801 -1.02539 C 16.1621 -1.02539 13.3301 1.80664 13.3301 5.27344 C 13.3301 8.69141 16.1621 11.5723 19.5801 11.5723 C 23.0469 11.5723 25.8789 8.69141 25.8789 5.27344 Z M 106.006 5.27344 C 106.006 2.58789 103.809 0.537109 100.928 0.537109 L 36.4258 0.537109 C 33.5449 0.537109 31.3965 2.58789 31.3965 5.27344 C 31.3965 8.00781 33.5449 10.0098 36.4258 10.0098 L 100.928 10.0098 C 103.809 10.0098 106.006 8.00781 106.006 5.27344 Z"/>
  </g>
  <g id="Bold-M" transform="matrix(1 0 0 1 2278.99 1126)">
   <path d="M 28.0762 -81.25 C 16.9922 -81.25 12.4512 -76.0254 12.4512 -65.1855 L 12.4512 -44.7754 C 12.4512 -33.9355 16.9922 -28.7109 28.0762 -28.7109 L 93.8965 -28.7109 C 104.98 -28.7109 109.521 -33.9355 109.521 -44.7754 L 109.521 -65.1855 C 109.521 -76.0254 104.98 -81.25 93.8965 -81.25 Z M 25.5371 -44.4824 L 25.5371 -65.4785 C 25.5371 -68.457 26.7578 -69.9707 29.7363 -69.9707 L 92.2363 -69.9707 C 95.2148 -69.9707 96.4355 -68.457 96.4355 -65.4785 L 96.4355 -44.4824 C 96.4355 -41.4551 95.2148 -40.0391 92.2363 -40.0391 L 29.7363 -40.0391 C 26.7578 -40.0391 25.5371 -41.4551 25.5371 -44.4824 Z M 26.9531 -14.1602 C 26.9531 -18.0664 24.0234 -21.0449 20.1172 -21.0449 C 16.3574 -21.0449 13.2812 -17.9688 13.2812 -14.1602 C 13.2812 -10.498 16.3574 -7.32422 20.1172 -7.32422 C 23.8281 -7.32422 26.9531 -10.498 26.9531 -14.1602 Z M 107.031 -14.1602 C 107.031 -17.1875 104.59 -19.4336 101.465 -19.4336 L 37.6465 -19.4336 C 34.5215 -19.4336 32.1289 -17.1875 32.1289 -14.1602 C 32.1289 -11.1328 34.5215 -8.88672 37.6465 -8.88672 L 101.465 -8.88672 C 104.59 -8.88672 107.031 -11.1328 107.031 -14.1602 Z M 26.9531 5.37109 C 26.9531 1.46484 24.0234 -1.51367 20.1172 -1.51367 C 16.3574 -1.51367 13.2812 1.5625 13.2812 5.37109 C 13.2812 9.0332 16.3574 12.2559 20.1172 12.2559 C 23.8281 12.2559 26.9531 9.0332 26.9531 5.37109 Z M 107.031 5.37109 C 107.031 2.34375 104.59 0.0976562 101.465 0.0976562 L 37.6465 0.0976562 C 34.5215 0.0976562 32.1289 2.34375 32.1289 5.37109 C 32.1289 8.39844 34.5215 10.6445 37.6465 10.6445 L 101.465 10.6445 C 104.59 10.6445 107.031 8.39844 107.031 5.37109 Z"/>
  </g>
  <g id="Heavy-M" transform="matrix(1 0 0 1 2574.77 1126)">
   <path d="M 29.1504 -82.0801 C 17.4805 -82.0801 12.4512 -76.416 12.4512 -64.8438 L 12.4512 -45.6543 C 12.4512 -34.082 17.4805 -28.418 29.1504 -28.418 L 94.6777 -28.418 C 106.348 -28.418 111.377 -34.082 111.377 -45.6543 L 111.377 -64.8438 C 111.377 -76.416 106.348 -82.0801 94.6777 -82.0801 Z M 28.2715 -45.3125 L 28.2715 -65.1367 C 28.2715 -67.4316 29.3945 -68.7012 31.6895 -68.7012 L 92.1387 -68.7012 C 94.4336 -68.7012 95.5566 -67.4316 95.5566 -65.1367 L 95.5566 -45.3125 C 95.5566 -43.0176 94.4336 -41.7969 92.1387 -41.7969 L 31.6895 -41.7969 C 29.3945 -41.7969 28.2715 -43.0176 28.2715 -45.3125 Z M 28.5156 -14.2578 C 28.5156 -18.7012 25.293 -21.9727 20.8496 -21.9727 C 16.6504 -21.9727 13.1836 -18.5547 13.1836 -14.2578 C 13.1836 -10.2051 16.6504 -6.54297 20.8496 -6.54297 C 24.9512 -6.54297 28.5156 -10.2051 28.5156 -14.2578 Z M 108.545 -14.2578 C 108.545 -17.7246 105.762 -20.3125 102.197 -20.3125 L 39.4531 -20.3125 C 35.8887 -20.3125 33.1543 -17.7246 33.1543 -14.2578 C 33.1543 -10.7422 35.8887 -8.1543 39.4531 -8.1543 L 102.197 -8.1543 C 105.762 -8.1543 108.545 -10.7422 108.545 -14.2578 Z M 28.5156 5.51758 C 28.5156 1.07422 25.293 -2.19727 20.8496 -2.19727 C 16.6504 -2.19727 13.1836 1.2207 13.1836 5.51758 C 13.1836 9.57031 16.6504 13.2324 20.8496 13.2324 C 24.9512 13.2324 28.5156 9.57031 28.5156 5.51758 Z M 108.545 5.51758 C 108.545 2.05078 105.762 -0.585938 102.197 -0.585938 L 39.4531 -0.585938 C 35.8887 -0.585938 33.1543 2.05078 33.1543 5.51758 C 33.1543 8.98438 35.8887 11.5723 39.4531 11.5723 L 102.197 11.5723 C 105.762 11.5723 108.545 8.98438 108.545 5.51758 Z"/>
  </g>
  <g id="Black-M" transform="matrix(1 0 0 1 2870.63 1126)">
   <path d="M 30.127 -82.8125 C 17.9199 -82.8125 12.4512 -76.709 12.4512 -64.502 L 12.4512 -46.4355 C 12.4512 -34.2285 17.9199 -28.125 30.127 -28.125 L 95.4102 -28.125 C 107.568 -28.125 113.086 -34.2285 113.086 -46.4355 L 113.086 -64.502 C 113.086 -76.709 107.568 -82.8125 95.4102 -82.8125 Z M 30.7617 -46.0449 L 30.7617 -64.8438 C 30.7617 -66.5039 31.7383 -67.5781 33.4473 -67.5781 L 92.0898 -67.5781 C 93.7988 -67.5781 94.7754 -66.5039 94.7754 -64.8438 L 94.7754 -46.0449 C 94.7754 -44.3359 93.7988 -43.3594 92.0898 -43.3594 L 33.4473 -43.3594 C 31.7383 -43.3594 30.7617 -44.3359 30.7617 -46.0449 Z M 29.9316 -14.3066 C 29.9316 -19.2383 26.416 -22.8027 21.4844 -22.8027 C 16.8945 -22.8027 13.0859 -19.043 13.0859 -14.3066 C 13.0859 -9.91211 16.8945 -5.85938 21.4844 -5.85938 C 25.9766 -5.85938 29.9316 -9.91211 29.9316 -14.3066 Z M 109.912 -14.3066 C 109.912 -18.2129 106.787 -21.0938 102.881 -21.0938 L 41.0156 -21.0938 C 37.1582 -21.0938 34.1309 -18.2129 34.1309 -14.3066 C 34.1309 -10.4492 37.1582 -7.51953 41.0156 -7.51953 L 102.881 -7.51953 C 106.787 -7.51953 109.912 -10.4492 109.912 -14.3066 Z M 29.9316 5.61523 C 29.9316 0.732422 26.416 -2.83203 21.4844 -2.83203 C 16.8945 -2.83203 13.0859 0.927734 13.0859 5.61523 C 13.0859 10.0098 16.8945 14.1113 21.4844 14.1113 C 25.9766 14.1113 29.9316 10.0098 29.9316 5.61523 Z M 109.912 5.61523 C 109.912 1.75781 106.787 -1.17188 102.881 -1.17188 L 41.0156 -1.17188 C 37.1582 -1.17188 34.1309 1.75781 34.1309 5.61523 C 34.1309 9.52148 37.1582 12.4023 41.0156 12.4023 L 102.881 12.4023 C 106.787 12.4023 109.912 9.52148 109.912 5.61523 Z"/>
  </g>
  <g id="Ultralight-L" transform="matrix(1 0 0 1 487.201 1556)">
   <path d="M 31.6895 -90.0391 C 22.0703 -90.0391 16.0645 -84.2285 16.0645 -74.5605 L 16.0645 -43.9941 C 16.0645 -34.3262 22.0703 -28.5156 31.6895 -28.5156 L 113.379 -28.5156 C 122.949 -28.5156 128.955 -34.3262 128.955 -43.9941 L 128.955 -74.5605 C 128.955 -84.2285 122.949 -90.0391 113.379 -90.0391 Z M 18.6523 -44.043 L 18.6523 -74.5605 C 18.6523 -83.0078 23.2422 -87.5977 31.6895 -87.5977 L 113.379 -87.5977 C 121.826 -87.5977 126.416 -83.0078 126.416 -74.5605 L 126.416 -44.043 C 126.416 -35.5469 121.826 -30.957 113.379 -30.957 L 31.6895 -30.957 C 23.2422 -30.957 18.6523 -35.5469 18.6523 -44.043 Z M 29.0039 -6.78711 C 29.0039 -9.76562 26.5137 -12.4023 23.4375 -12.4023 C 20.4102 -12.4023 17.8223 -9.76562 17.8223 -6.78711 C 17.8223 -3.71094 20.4102 -1.17188 23.4375 -1.17188 C 26.5137 -1.17188 29.0039 -3.71094 29.0039 -6.78711 Z M 128.564 -6.78711 C 128.564 -7.4707 127.979 -8.10547 127.246 -8.10547 L 39.6484 -8.10547 C 38.8672 -8.10547 38.3301 -7.4707 38.3301 -6.78711 C 38.3301 -6.10352 38.8672 -5.51758 39.6484 -5.51758 L 127.246 -5.51758 C 127.979 -5.51758 128.564 -6.10352 128.564 -6.78711 Z M 29.0039 16.2109 C 29.0039 13.2324 26.5137 10.6445 23.4375 10.6445 C 20.4102 10.6445 17.8223 13.2324 17.8223 16.2109 C 17.8223 19.2871 20.4102 21.8262 23.4375 21.8262 C 26.5137 21.8262 29.0039 19.2871 29.0039 16.2109 Z M 128.564 16.2109 C 128.564 15.5273 127.979 14.9414 127.246 14.9414 L 39.6484 14.9414 C 38.8672 14.9414 38.3301 15.5273 38.3301 16.2109 C 38.3301 16.9434 38.8672 17.5293 39.6484 17.5293 L 127.246 17.5293 C 127.979 17.5293 128.564 16.9434 128.564 16.2109 Z"/>
  </g>
  <g id="Thin-L" transform="matrix(1 0 0 1 783.204 1556)">
   <path d="M 32.0312 -90.5273 C 21.8262 -90.5273 16.0645 -84.7656 16.0645 -74.6094 L 16.0645 -44.2383 C 16.0645 -34.1309 21.8262 -28.3691 32.0312 -28.3691 L 114.404 -28.3691 C 124.609 -28.3691 130.371 -34.1309 130.371 -44.2383 L 130.371 -74.6094 C 130.371 -84.7656 124.609 -90.5273 114.404 -90.5273 Z M 20.0195 -44.2383 L 20.0195 -74.6582 C 20.0195 -82.5684 24.1211 -86.8164 32.0312 -86.8164 L 114.404 -86.8164 C 122.363 -86.8164 126.416 -82.5684 126.416 -74.6582 L 126.416 -44.2383 C 126.416 -36.2793 122.363 -32.0801 114.404 -32.0801 L 32.0312 -32.0801 C 24.1211 -32.0801 20.0195 -36.2793 20.0195 -44.2383 Z M 29.3945 -6.98242 C 29.3945 -10.1074 26.7578 -12.793 23.5352 -12.793 C 20.4102 -12.793 17.7246 -10.1074 17.7246 -6.98242 C 17.7246 -3.75977 20.4102 -1.17188 23.5352 -1.17188 C 26.7578 -1.17188 29.3945 -3.75977 29.3945 -6.98242 Z M 129.639 -6.98242 C 129.639 -8.05664 128.76 -8.93555 127.539 -8.93555 L 40.4785 -8.93555 C 39.3066 -8.93555 38.4277 -8.05664 38.4277 -6.98242 C 38.4277 -5.9082 39.3066 -5.0293 40.4785 -5.0293 L 127.539 -5.0293 C 128.76 -5.0293 129.639 -5.9082 129.639 -6.98242 Z M 29.3945 16.3574 C 29.3945 13.2324 26.7578 10.498 23.5352 10.498 C 20.4102 10.498 17.7246 13.2324 17.7246 16.3574 C 17.7246 19.5312 20.4102 22.168 23.5352 22.168 C 26.7578 22.168 29.3945 19.5312 29.3945 16.3574 Z M 129.639 16.3574 C 129.639 15.2832 128.76 14.4043 127.539 14.4043 L 40.4785 14.4043 C 39.3066 14.4043 38.4277 15.2832 38.4277 16.3574 C 38.4277 17.4316 39.3066 18.2617 40.4785 18.2617 L 127.539 18.2617 C 128.76 18.2617 129.639 17.4316 129.639 16.3574 Z"/>
  </g>
  <g id="Light-L" transform="matrix(1 0 0 1 1078.55 1556)">
   <path d="M 32.666 -91.4062 C 21.3379 -91.4062 16.0645 -85.7422 16.0645 -74.707 L 16.0645 -44.7754 C 16.0645 -33.7402 21.3379 -28.0273 32.666 -28.0273 L 116.504 -28.0273 C 127.832 -28.0273 133.105 -33.7402 133.105 -44.7754 L 133.105 -74.707 C 133.105 -85.7422 127.832 -91.4062 116.504 -91.4062 Z M 22.7051 -44.6289 L 22.7051 -74.8535 C 22.7051 -81.7383 25.8301 -85.2051 32.7148 -85.2051 L 116.455 -85.2051 C 123.389 -85.2051 126.465 -81.7383 126.465 -74.8535 L 126.465 -44.6289 C 126.465 -37.6953 123.389 -34.2285 116.455 -34.2285 L 32.7148 -34.2285 C 25.8301 -34.2285 22.7051 -37.6953 22.7051 -44.6289 Z M 30.0781 -7.32422 C 30.0781 -10.7422 27.2461 -13.623 23.7793 -13.623 C 20.4102 -13.623 17.5781 -10.7422 17.5781 -7.32422 C 17.5781 -3.90625 20.4102 -1.12305 23.7793 -1.12305 C 27.2461 -1.12305 30.0781 -3.90625 30.0781 -7.32422 Z M 131.689 -7.32422 C 131.689 -9.17969 130.225 -10.5469 128.174 -10.5469 L 42.1387 -10.5469 C 40.0879 -10.5469 38.623 -9.17969 38.623 -7.32422 C 38.623 -5.51758 40.0879 -4.15039 42.1387 -4.15039 L 128.174 -4.15039 C 130.225 -4.15039 131.689 -5.51758 131.689 -7.32422 Z M 30.0781 16.5527 C 30.0781 13.1836 27.2461 10.3027 23.7793 10.3027 C 20.4102 10.3027 17.5781 13.1836 17.5781 16.5527 C 17.5781 20.0195 20.4102 22.8027 23.7793 22.8027 C 27.2461 22.8027 30.0781 20.0195 30.0781 16.5527 Z M 131.689 16.5527 C 131.689 14.7461 130.225 13.3301 128.174 13.3301 L 42.1387 13.3301 C 40.0879 13.3301 38.623 14.7461 38.623 16.5527 C 38.623 18.3594 40.0879 19.7754 42.1387 19.7754 L 128.174 19.7754 C 130.225 19.7754 131.689 18.3594 131.689 16.5527 Z"/>
  </g>
  <g id="Regular-L" transform="matrix(1 0 0 1 1374.21 1556)">
   <path d="M 33.2031 -92.0898 C 20.9473 -92.0898 16.0645 -86.4746 16.0645 -74.7559 L 16.0645 -45.166 C 16.0645 -33.4473 20.9473 -27.7832 33.2031 -27.7832 L 118.066 -27.7832 C 130.273 -27.7832 135.156 -33.4473 135.156 -45.166 L 135.156 -74.7559 C 135.156 -86.4746 130.273 -92.0898 118.066 -92.0898 Z M 24.7559 -44.9219 L 24.7559 -75 C 24.7559 -81.1035 27.0996 -84.0332 33.252 -84.0332 L 118.018 -84.0332 C 124.17 -84.0332 126.514 -81.1035 126.514 -75 L 126.514 -44.9219 C 126.514 -38.7695 124.17 -35.8887 118.018 -35.8887 L 33.252 -35.8887 C 27.0996 -35.8887 24.7559 -38.7695 24.7559 -44.9219 Z M 30.5664 -7.61719 C 30.5664 -11.2305 27.6367 -14.209 23.9746 -14.209 C 20.3613 -14.209 17.4316 -11.2305 17.4316 -7.61719 C 17.4316 -4.00391 20.3613 -1.12305 23.9746 -1.12305 C 27.6367 -1.12305 30.5664 -4.00391 30.5664 -7.61719 Z M 133.252 -7.61719 C 133.252 -10.0098 131.299 -11.8164 128.662 -11.8164 L 43.3594 -11.8164 C 40.7227 -11.8164 38.7695 -10.0098 38.7695 -7.61719 C 38.7695 -5.27344 40.7227 -3.4668 43.3594 -3.4668 L 128.662 -3.4668 C 131.299 -3.4668 133.252 -5.27344 133.252 -7.61719 Z M 30.5664 16.748 C 30.5664 13.1348 27.6367 10.1074 23.9746 10.1074 C 20.3613 10.1074 17.4316 13.1348 17.4316 16.748 C 17.4316 20.3613 20.3613 23.291 23.9746 23.291 C 27.6367 23.291 30.5664 20.3613 30.5664 16.748 Z M 133.252 16.748 C 133.252 14.3555 131.299 12.5488 128.662 12.5488 L 43.3594 12.5488 C 40.7227 12.5488 38.7695 14.3555 38.7695 16.748 C 38.7695 19.0918 40.7227 20.8984 43.3594 20.8984 L 128.662 20.8984 C 131.299 20.8984 133.252 19.0918 133.252 16.748 Z"/>
  </g>
  <g id="Medium-L" transform="matrix(1 0 0 1 1670.16 1556)">
   <path d="M 33.9355 -92.7246 C 21.1914 -92.7246 16.0645 -86.8164 16.0645 -74.5117 L 16.0645 -45.752 C 16.0645 -33.4473 21.1914 -27.5391 33.9355 -27.5391 L 118.848 -27.5391 C 131.592 -27.5391 136.719 -33.4473 136.719 -45.752 L 136.719 -74.5117 C 136.719 -86.8164 131.592 -92.7246 118.848 -92.7246 Z M 26.8066 -45.459 L 26.8066 -74.8047 C 26.8066 -80.3711 29.0039 -83.0078 34.5215 -83.0078 L 118.262 -83.0078 C 123.828 -83.0078 125.977 -80.3711 125.977 -74.8047 L 125.977 -45.459 C 125.977 -39.9414 123.828 -37.3047 118.262 -37.3047 L 34.5215 -37.3047 C 29.0039 -37.3047 26.8066 -39.9414 26.8066 -45.459 Z M 31.6406 -7.71484 C 31.6406 -11.6699 28.5156 -14.8926 24.4629 -14.8926 C 20.5566 -14.8926 17.334 -11.6699 17.334 -7.71484 C 17.334 -3.80859 20.5566 -0.634766 24.4629 -0.634766 C 28.418 -0.634766 31.6406 -3.80859 31.6406 -7.71484 Z M 134.521 -7.71484 C 134.521 -10.498 132.227 -12.5977 129.248 -12.5977 L 44.6777 -12.5977 C 41.6992 -12.5977 39.4531 -10.498 39.4531 -7.71484 C 39.4531 -4.98047 41.6992 -2.88086 44.6777 -2.88086 L 129.248 -2.88086 C 132.227 -2.88086 134.521 -4.98047 134.521 -7.71484 Z M 31.6406 16.8457 C 31.6406 12.8906 28.5156 9.66797 24.4629 9.66797 C 20.5566 9.66797 17.334 12.8906 17.334 16.8457 C 17.334 20.752 20.5566 23.9746 24.4629 23.9746 C 28.418 23.9746 31.6406 20.752 31.6406 16.8457 Z M 134.521 16.8457 C 134.521 14.0625 132.227 12.0117 129.248 12.0117 L 44.6777 12.0117 C 41.6992 12.0117 39.4531 14.0625 39.4531 16.8457 C 39.4531 19.5801 41.6992 21.6797 44.6777 21.6797 L 129.248 21.6797 C 132.227 21.6797 134.521 19.5801 134.521 16.8457 Z"/>
  </g>
  <g id="Semibold-L" transform="matrix(1 0 0 1 1966.26 1556)">
   <path d="M 34.5215 -93.2129 C 21.3867 -93.2129 16.0645 -87.1094 16.0645 -74.3652 L 16.0645 -46.2402 C 16.0645 -33.4961 21.3867 -27.3438 34.5215 -27.3438 L 119.434 -27.3438 C 132.568 -27.3438 137.891 -33.4961 137.891 -46.2402 L 137.891 -74.3652 C 137.891 -87.1094 132.568 -93.2129 119.434 -93.2129 Z M 28.418 -45.8984 L 28.418 -74.6582 C 28.418 -79.7852 30.4199 -82.2266 35.5469 -82.2266 L 118.457 -82.2266 C 123.584 -82.2266 125.586 -79.7852 125.586 -74.6582 L 125.586 -45.8984 C 125.586 -40.8203 123.584 -38.3789 118.457 -38.3789 L 35.5469 -38.3789 C 30.4199 -38.3789 28.418 -40.8203 28.418 -45.8984 Z M 32.4707 -7.8125 C 32.4707 -12.0605 29.1504 -15.4297 24.8535 -15.4297 C 20.7031 -15.4297 17.2852 -12.0117 17.2852 -7.8125 C 17.2852 -3.71094 20.7031 -0.244141 24.8535 -0.244141 C 29.0527 -0.244141 32.4707 -3.71094 32.4707 -7.8125 Z M 135.449 -7.8125 C 135.449 -10.8398 132.959 -13.1836 129.688 -13.1836 L 45.7031 -13.1836 C 42.4316 -13.1836 39.9902 -10.8398 39.9902 -7.8125 C 39.9902 -4.73633 42.4316 -2.44141 45.7031 -2.44141 L 129.688 -2.44141 C 132.959 -2.44141 135.449 -4.73633 135.449 -7.8125 Z M 32.4707 16.9434 C 32.4707 12.6953 29.1504 9.27734 24.8535 9.27734 C 20.7031 9.27734 17.2852 12.7441 17.2852 16.9434 C 17.2852 21.0449 20.7031 24.5117 24.8535 24.5117 C 29.0527 24.5117 32.4707 21.0449 32.4707 16.9434 Z M 135.449 16.9434 C 135.449 13.8672 132.959 11.5723 129.688 11.5723 L 45.7031 11.5723 C 42.4316 11.5723 39.9902 13.8672 39.9902 16.9434 C 39.9902 19.9707 42.4316 22.2656 45.7031 22.2656 L 129.688 22.2656 C 132.959 22.2656 135.449 19.9707 135.449 16.9434 Z"/>
  </g>
  <g id="Bold-L" transform="matrix(1 0 0 1 2262.19 1556)">
   <path d="M 35.3027 -93.8965 C 21.6309 -93.8965 16.0645 -87.4512 16.0645 -74.1699 L 16.0645 -46.875 C 16.0645 -33.5449 21.6309 -27.0996 35.3027 -27.0996 L 120.215 -27.0996 C 133.936 -27.0996 139.453 -33.5449 139.453 -46.875 L 139.453 -74.1699 C 139.453 -87.4512 133.936 -93.8965 120.215 -93.8965 Z M 30.5176 -46.4844 L 30.5176 -74.4629 C 30.5176 -79.0039 32.3242 -81.2012 36.8652 -81.2012 L 118.701 -81.2012 C 123.242 -81.2012 125.049 -79.0039 125.049 -74.4629 L 125.049 -46.4844 C 125.049 -41.9434 123.242 -39.7949 118.701 -39.7949 L 36.8652 -39.7949 C 32.3242 -39.7949 30.5176 -41.9434 30.5176 -46.4844 Z M 33.5449 -7.91016 C 33.5449 -12.5488 30.0293 -16.1133 25.3418 -16.1133 C 20.8984 -16.1133 17.1875 -12.4512 17.1875 -7.91016 C 17.1875 -3.51562 20.8984 0.244141 25.3418 0.244141 C 29.834 0.244141 33.5449 -3.51562 33.5449 -7.91016 Z M 136.67 -7.91016 C 136.67 -11.377 133.887 -13.9648 130.225 -13.9648 L 47.0703 -13.9648 C 43.4082 -13.9648 40.6738 -11.377 40.6738 -7.91016 C 40.6738 -4.49219 43.4082 -1.85547 47.0703 -1.85547 L 130.225 -1.85547 C 133.887 -1.85547 136.67 -4.49219 136.67 -7.91016 Z M 33.5449 17.041 C 33.5449 12.4023 30.0293 8.83789 25.3418 8.83789 C 20.8984 8.83789 17.1875 12.5 17.1875 17.041 C 17.1875 21.4355 20.8984 25.2441 25.3418 25.2441 C 29.834 25.2441 33.5449 21.4355 33.5449 17.041 Z M 136.67 17.041 C 136.67 13.5742 133.887 10.9863 130.225 10.9863 L 47.0703 10.9863 C 43.4082 10.9863 40.6738 13.5742 40.6738 17.041 C 40.6738 20.5078 43.4082 23.0957 47.0703 23.0957 L 130.225 23.0957 C 133.887 23.0957 136.67 20.5078 136.67 17.041 Z"/>
  </g>
  <g id="Heavy-L" transform="matrix(1 0 0 1 2557.78 1556)">
   <path d="M 36.4746 -94.8242 C 22.0215 -94.8242 16.0645 -87.9883 16.0645 -73.8281 L 16.0645 -47.7539 C 16.0645 -33.5938 22.0215 -26.7578 36.4746 -26.7578 L 121.387 -26.7578 C 135.84 -26.7578 141.748 -33.5938 141.748 -47.7539 L 141.748 -73.8281 C 141.748 -87.9883 135.84 -94.8242 121.387 -94.8242 Z M 33.5938 -47.3145 L 33.5938 -74.2188 C 33.5938 -77.8809 35.1074 -79.7363 38.8184 -79.7363 L 119.043 -79.7363 C 122.754 -79.7363 124.268 -77.8809 124.268 -74.2188 L 124.268 -47.3145 C 124.268 -43.6523 122.754 -41.8457 119.043 -41.8457 L 38.8184 -41.8457 C 35.1074 -41.8457 33.5938 -43.6523 33.5938 -47.3145 Z M 35.1074 -8.05664 C 35.1074 -13.2324 31.2988 -17.1387 26.0742 -17.1387 C 21.1426 -17.1387 17.0898 -13.0859 17.0898 -8.05664 C 17.0898 -3.27148 21.1426 0.976562 26.0742 0.976562 C 30.957 0.976562 35.1074 -3.27148 35.1074 -8.05664 Z M 138.477 -8.05664 C 138.477 -12.0605 135.254 -15.0879 131.055 -15.0879 L 49.0234 -15.0879 C 44.8242 -15.0879 41.6504 -12.0605 41.6504 -8.05664 C 41.6504 -4.05273 44.8242 -1.07422 49.0234 -1.07422 L 131.055 -1.07422 C 135.254 -1.07422 138.477 -4.05273 138.477 -8.05664 Z M 35.1074 17.1875 C 35.1074 12.0605 31.2988 8.10547 26.0742 8.10547 C 21.1426 8.10547 17.0898 12.207 17.0898 17.1875 C 17.0898 22.0215 21.1426 26.2695 26.0742 26.2695 C 30.957 26.2695 35.1074 22.0215 35.1074 17.1875 Z M 138.477 17.1875 C 138.477 13.1836 135.254 10.2051 131.055 10.2051 L 49.0234 10.2051 C 44.8242 10.2051 41.6504 13.1836 41.6504 17.1875 C 41.6504 21.2402 44.8242 24.2188 49.0234 24.2188 L 131.055 24.2188 C 135.254 24.2188 138.477 21.2402 138.477 17.1875 Z"/>
  </g>
  <g id="Black-L" transform="matrix(1 0 0 1 2853.47 1556)">
   <path d="M 37.4512 -95.6543 C 22.3145 -95.6543 16.0645 -88.4766 16.0645 -73.5352 L 16.0645 -48.5352 C 16.0645 -33.6426 22.3145 -26.4648 37.4512 -26.4648 L 122.412 -26.4648 C 137.549 -26.4648 143.799 -33.6426 143.799 -48.5352 L 143.799 -73.5352 C 143.799 -88.4766 137.549 -95.6543 122.412 -95.6543 Z M 36.3281 -48.0957 L 36.3281 -73.9746 C 36.3281 -76.9043 37.5488 -78.418 40.5273 -78.418 L 119.336 -78.418 C 122.314 -78.418 123.535 -76.9043 123.535 -73.9746 L 123.535 -48.0957 C 123.535 -45.1172 122.314 -43.6523 119.336 -43.6523 L 40.5273 -43.6523 C 37.5488 -43.6523 36.3281 -45.1172 36.3281 -48.0957 Z M 36.5234 -8.20312 C 36.5234 -13.8184 32.373 -18.0664 26.7578 -18.0664 C 21.3867 -18.0664 16.9922 -13.6719 16.9922 -8.20312 C 16.9922 -3.02734 21.3867 1.61133 26.7578 1.61133 C 31.9824 1.61133 36.5234 -3.02734 36.5234 -8.20312 Z M 140.137 -8.20312 C 140.137 -12.7441 136.426 -16.1133 131.836 -16.1133 L 50.7324 -16.1133 C 46.1426 -16.1133 42.5781 -12.7441 42.5781 -8.20312 C 42.5781 -3.66211 46.1426 -0.292969 50.7324 -0.292969 L 131.836 -0.292969 C 136.426 -0.292969 140.137 -3.66211 140.137 -8.20312 Z M 36.5234 17.334 C 36.5234 11.7188 32.373 7.51953 26.7578 7.51953 C 21.3867 7.51953 16.9922 11.9141 16.9922 17.334 C 16.9922 22.5098 21.3867 27.1973 26.7578 27.1973 C 31.9824 27.1973 36.5234 22.5098 36.5234 17.334 Z M 140.137 17.334 C 140.137 12.8418 136.426 9.47266 131.836 9.47266 L 50.7324 9.47266 C 46.1426 9.47266 42.5781 12.8418 42.5781 17.334 C 42.5781 21.875 46.1426 25.2441 50.7324 25.2441 L 131.836 25.2441 C 136.426 25.2441 140.137 21.875 140.137 17.334 Z"/>
  </g>
 </g>
</svg>
